<svg xmlns="http://www.w3.org/2000/svg" viewBox="0 0 300 60">
  <g fill="#FFFFFF">
    <path d="M30.5,10.2L24.8,30h-5.1l-3.8-14L12,30H6.9L1.2,10.2h4.7L9.7,24l4-13.8h4.2l3.9,13.9l3.8-13.9H30.5z"/>
    <path d="M50.4,20.1c0,6.1-4.5,10.4-10.2,10.4c-5.7,0-10.2-4.3-10.2-10.4c0-6.1,4.5-10.4,10.2-10.4C45.9,9.7,50.4,14,50.4,20.1z M35.1,20.1c0,3.2,2.2,5.9,5.1,5.9c2.9,0,5.1-2.7,5.1-5.9c0-3.2-2.2-5.9-5.1-5.9C37.3,14.2,35.1,16.9,35.1,20.1z"/>
    <path d="M70.8,10.2L65.1,30H60l-3.8-14L52.3,30h-5.1l-5.7-19.8h4.7l3.8,13.8l4-13.8h4.2l3.9,13.9l3.8-13.9H70.8z"/>
  </g>
  <g fill="#FFFFFF" transform="translate(80, 10)">
    <path d="M17.9,0.2v4.4h-6.5v16h-4.9v-16H0V0.2H17.9z"/>
    <path d="M32.6,10.1c0,6.1-4.5,10.4-10.2,10.4c-5.7,0-10.2-4.3-10.2-10.4c0-6.1,4.5-10.4,10.2-10.4C28.1,0,32.6,4,32.6,10.1z M17.3,10.1c0,3.2,2.2,5.9,5.1,5.9c2.9,0,5.1-2.7,5.1-5.9c0-3.2-2.2-5.9-5.1-5.9C19.5,4.2,17.3,6.9,17.3,10.1z"/>
    <path d="M54.1,20.5h-4.7l-7.2-10.2v10.2h-4.5V0.2h4.5v9.6l6.9-9.6h4.5L46,10.4L54.1,20.5z"/>
  </g>
  <g fill="#FFFFFF" transform="translate(150, 10)">
    <path d="M16.6,20.5h-4.6v-7.7H4.6v7.7H0V0.2h4.6v8.2H12V0.2h4.6V20.5z"/>
    <path d="M32.1,16.1v4.4H18.7V0.2h13v4.4h-8.4v3.5h7.3v4.2h-7.3v3.8H32.1z"/>
    <path d="M48.2,0.2v4.4h-6.5v16h-4.9v-16h-6.5V0.2H48.2z"/>
    <path d="M53.4,20.5h-4.6V0.2h4.6V20.5z"/>
  </g>
</svg>
